<?xml version="1.0" encoding="UTF-8"?>
<svg id="Layer_2" data-name="Layer 2" xmlns="http://www.w3.org/2000/svg" viewBox="0 0 800 800">
  <defs>
    <style>
      .cls-1 {
        fill: #fff;
      }
    </style>
  </defs>
  <g id="Layer_1-2" data-name="Layer 1">
    <path class="cls-1" d="M384.49,426.37c-30.29,0-43.39,4.26-43.39,20.45,0,14.06,7.64,16.19,24.29,16.19,22.1,0,46.11-8.52,62.48-19.6v-10.65c-10.37-4.26-24.55-6.39-43.38-6.39ZM642.88,352.25c-29.2,0-45.84,9.37-45.84,46.86s16.64,46.86,45.84,46.86,45.84-9.38,45.84-46.86-16.65-46.86-45.84-46.86ZM642.88,352.25c-29.2,0-45.84,9.37-45.84,46.86s16.64,46.86,45.84,46.86,45.84-9.38,45.84-46.86-16.65-46.86-45.84-46.86ZM384.49,426.37c-30.29,0-43.39,4.26-43.39,20.45,0,14.06,7.64,16.19,24.29,16.19,22.1,0,46.11-8.52,62.48-19.6v-10.65c-10.37-4.26-24.55-6.39-43.38-6.39ZM721.28,0H78.73C35.25,0,0,35.24,0,78.72v642.55c0,43.48,35.25,78.73,78.73,78.73h642.55c43.48,0,78.72-35.25,78.72-78.73V78.72c0-43.48-35.24-78.72-78.72-78.72ZM385.31,352.25c-21.01,0-45.02,2.98-75.04,13.2l-21.28-72.42c32.74-16.62,68.21-25.99,98.5-25.99,67.12,0,105.32,35.79,105.87,133.34v126.53h-65.49v-31.1c-25.37,28.97-53.75,35.36-82.13,35.36-37.38,0-70.12-20.88-70.12-76.26,0-66.45,49.11-83.92,96.86-83.92,22.92,0,40.39,4.69,55.39,13.21,0-30.68-20.73-31.95-42.56-31.95ZM242.88,526.91H46.42V228.7h70.94v204.49h125.52v93.72ZM541.78,646.83c-.01.45-.07.97-.19,1.61-.13.64-.32,1.42-.62,2.38-.29.97-.69,2.13-1.21,3.55-.53,1.42-1.19,3.1-2,5.11-.82,2-1.8,4.33-2.97,7.05-.21.47-.34.78-.43.98.11-.28.29-.71.33-.8l-2.59,3.65-2.55,3.72-2.56,3.71-5,7.5-2.46,3.79-2.45,3.79-2.4,3.84-2.41,3.83-2.35,3.87-2.36,3.87-2.3,3.91-2.31,3.91-2.25,3.95-2.26,3.95c-.28-.16-.56-.33-.83-.49-.28-.17-.55-.34-.82-.52-.27-.17-.54-.34-.81-.52-.26-.18-.53-.36-.79-.55-.26-.18-.52-.37-.78-.56-.26-.19-.51-.38-.76-.58s-.5-.39-.75-.6c-.25-.2-.5-.4-.74-.61-.24-.2-.48-.41-.72-.63-.24-.21-.48-.42-.71-.64-.23-.22-.47-.44-.69-.66-.23-.22-.46-.45-.69-.68-.22-.23-.44-.46-.66-.69-.22-.24-.44-.48-.66-.71-.21-.24-.42-.49-.64-.73-.21-.25-.41-.5-.62-.75-.22-.22-.44-.45-.64-.67-.21-.23-.41-.46-.6-.7-.19-.23-.37-.47-.55-.71-.17-.24-.34-.48-.5-.73-.16-.24-.31-.49-.45-.74-.15-.26-.28-.51-.41-.77-.13-.25-.25-.51-.36-.78-.11-.26-.22-.52-.31-.79-.1-.27-.19-.54-.27-.82-.08-.27-.15-.55-.21-.83-.07-.28-.12-.56-.17-.84-.05-.29-.09-.58-.13-.87-.03-.29-.05-.58-.07-.88-.02-.3-.03-.6-.03-.9s.01-.61.02-.91c.02-.31.04-.62.07-.94l.36-.86.35-.86.34-.87.34-.87.33-.87.32-.88.31-.87.3-.88.29-.89.3-.88.27-.89.27-.89.52-1.8.24-.9.24-.9-3.28,1.35-6.54,2.7-3.27,1.34-3.29,1.33-3.29,1.33-3.29,1.33-3.29,1.32-6.6,2.62-3.3,1.3-3.31,1.31-3.31,1.28-3.32,1.29-3.32,1.28-3.31,1.28c-.95.27-1.91.53-2.86.78-.95.24-1.91.48-2.86.71-.96.23-1.92.45-2.87.66-.96.21-1.92.41-2.89.6-.96.2-1.92.38-2.88.55-.97.17-1.93.34-2.9.49-.97.16-1.94.3-2.91.44-.97.14-1.94.26-2.91.38-.98.12-1.95.23-2.92.33-.98.1-1.96.19-2.94.27-.97.08-1.95.15-2.94.21-.98.06-1.96.12-2.94.16-.99.04-1.97.08-2.96.1-.99.03-1.98.04-2.97.05-.99,0-1.98,0-2.97-.01s-1.99-.03-2.98-.07c-2.37-.27-4.73-.59-7.07-.94s-4.67-.74-6.98-1.16c-2.31-.43-4.6-.89-6.88-1.39-2.28-.5-4.55-1.04-6.8-1.62-2.25-.57-4.48-1.18-6.71-1.83-2.22-.65-4.42-1.34-6.61-2.07-2.19-.72-4.36-1.48-6.52-2.28-2.16-.8-4.31-1.64-6.44-2.51-2.13-.88-4.24-1.79-6.34-2.74-2.1-.95-4.18-1.94-6.25-2.96-2.07-1.02-4.12-2.08-6.16-3.18-2.04-1.1-4.07-2.24-6.07-3.41-2.01-1.18-4.01-2.39-5.98-3.63-1.98-1.25-3.95-2.54-5.89-3.86-1.95-1.32-3.88-2.68-5.8-4.08-1.92-1.4-3.82-2.83-5.71-4.31-.86-.63-1.7-1.28-2.52-1.94-.82-.66-1.62-1.33-2.4-2.02-.78-.68-1.55-1.38-2.3-2.09-.74-.7-1.47-1.43-2.18-2.16-.71-.73-1.41-1.48-2.08-2.23-.67-.76-1.33-1.53-1.97-2.31-.63-.79-1.25-1.58-1.86-2.39-.6-.8-1.18-1.62-1.74-2.45-.57-.83-1.11-1.67-1.64-2.53-.53-.85-1.04-1.72-1.53-2.6s-.96-1.77-1.42-2.67c-.45-.91-.89-1.82-1.31-2.75-.42-.93-.82-1.87-1.2-2.82-.38-.96-.74-1.92-1.09-2.9-.34-.97-.67-1.96-.98-2.96-.31-1.01-.6-2.02-.87-3.04,0-.19.03-.37.05-.55.03-.18.06-.35.09-.52.03-.17.07-.33.12-.49.04-.16.09-.32.14-.47.05-.15.11-.29.18-.43.06-.14.13-.28.2-.41s.15-.26.24-.38c.08-.13.17-.24.26-.36.09-.11.19-.22.29-.32.11-.11.21-.21.33-.3.11-.1.23-.19.35-.28.12-.08.25-.16.38-.24.13-.08.27-.15.41-.22.15-.06.29-.13.45-.19.15-.06.31-.11.47-.16.16-.05.33-.09.5-.13,2.78,2.93,5.59,5.74,8.44,8.43,2.85,2.69,5.73,5.26,8.65,7.71s5.87,4.78,8.87,7c2.99,2.21,6.01,4.3,9.07,6.27,3.07,1.98,6.16,3.83,9.3,5.56,3.13,1.74,6.3,3.35,9.5,4.85,3.21,1.49,6.45,2.87,9.72,4.12,3.28,1.26,6.59,2.39,9.94,3.41,3.34,1.02,6.72,1.91,10.14,2.69,3.42.78,6.87,1.43,10.36,1.97,3.49.54,7.02.96,10.58,1.26s7.15.48,10.78.54,7.3,0,11-.18c3.7-.18,7.44-.48,11.22-.9,3.77-.42,7.58-.96,11.42-1.62,3.85-.65,7.73-1.43,11.64-2.33,1-.19,2-.39,2.99-.6.99-.21,1.97-.43,2.95-.66.98-.24,1.96-.48,2.93-.73.98-.26,1.95-.52,2.91-.79.97-.28,1.93-.57,2.88-.86.96-.3,1.91-.61,2.86-.92.94-.32,1.89-.65,2.83-.99.94-.34,1.87-.69,2.8-1.05.93-.36,1.86-.73,2.78-1.11.92-.39,1.84-.78,2.75-1.18.92-.41,1.82-.82,2.73-1.25.9-.42,1.81-.86,2.7-1.3.9-.45,1.79-.91,2.68-1.37.89-.47,1.77-.95,2.65-1.44s1.75-.99,2.62-1.5,1.74-1.03,2.6-1.57l-.06-.11-.07-.11-.07-.11-.06-.11-.07-.1-.06-.11-.14-.22-.06-.11-.07-.11-.06-.11-.14-.22-.06-.11-.07-.11-.06-.11-1.88-.22-1.87-.21-1.87-.24-1.88-.24-3.74-.52-1.86-.28-1.87-.28-1.87-.3-1.87-.3-1.86-.33-1.86-.32-1.87-.35-1.86-.34-3.72-.74c-.96-.32-1.9-.67-2.82-1.03-.92-.37-1.82-.75-2.71-1.16-.88-.4-1.74-.82-2.59-1.27-.84-.44-1.67-.9-2.48-1.38-.8-.48-1.59-.99-2.36-1.51-.77-.52-1.52-1.06-2.25-1.62-.74-.56-1.45-1.13-2.14-1.73s-1.37-1.22-2.02-1.86c-.66-.63-1.3-1.29-1.91-1.97-.62-.67-1.22-1.37-1.8-2.09-.58-.71-1.14-1.45-1.68-2.2-.54-.76-1.07-1.53-1.57-2.32-.5-.8-.99-1.61-1.46-2.44-.46-.83-.91-1.69-1.34-2.56-.42-.87-.83-1.76-1.22-2.67-.39-.91-.77-1.84-1.12-2.79,2.32.36,4.63.7,6.95,1.01,2.32.32,4.64.62,6.96.9,2.32.28,4.64.54,6.97.78s4.66.46,6.99.67c2.33.2,4.66.38,7,.54,2.33.17,4.67.31,7.01.43,2.34.13,4.69.23,7.03.32,2.35.09,4.69.15,7.04.2,2.35.05,4.71.07,7.06.08,2.35.01,4.71,0,7.07-.03,2.36-.03,4.72-.08,7.08-.15,2.37-.07,4.73-.16,7.1-.26,2.37-.11,4.74-.24,7.11-.39,2.37-.14,4.75-.31,7.13-.49,2.37-.19,4.75-.39,7.13-.62,2.39-.22,4.77-.47,7.16-.73.67.27,1.33.55,1.98.85.65.29,1.28.6,1.91.92.63.31,1.24.64,1.84.99.61.34,1.2.7,1.78,1.06.58.37,1.15.75,1.7,1.14.56.4,1.1.8,1.64,1.22.53.41,1.05.84,1.56,1.29.51.44,1.01.89,1.5,1.36.49.47.96.94,1.43,1.43.46.49.92,1,1.36,1.51.44.52.87,1.05,1.29,1.59.41.54.82,1.09,1.22,1.66.39.56.77,1.14,1.15,1.73.37.59.73,1.19,1.08,1.8.35.62.68,1.24,1.01,1.88.33.64.64,1.29.94,1.95.03.39.05.78.03,1.23ZM664.71,531.17c-25.38,0-50.48-11.93-67.67-39.19v34.93h-65.49V186.1h65.49v120.14c17.19-27.27,42.29-39.2,67.67-39.2,42.29,0,89.49,28.97,89.49,132.07s-47.2,132.06-89.49,132.06ZM642.88,352.25c-29.2,0-45.84,9.37-45.84,46.86s16.64,46.86,45.84,46.86,45.84-9.38,45.84-46.86-16.65-46.86-45.84-46.86ZM341.1,446.82c0,14.06,7.64,16.19,24.29,16.19,22.1,0,46.11-8.52,62.48-19.6v-10.65c-10.37-4.26-24.55-6.39-43.38-6.39-30.29,0-43.39,4.26-43.39,20.45ZM384.49,426.37c-30.29,0-43.39,4.26-43.39,20.45,0,14.06,7.64,16.19,24.29,16.19,22.1,0,46.11-8.52,62.48-19.6v-10.65c-10.37-4.26-24.55-6.39-43.38-6.39ZM384.49,426.37c-30.29,0-43.39,4.26-43.39,20.45,0,14.06,7.64,16.19,24.29,16.19,22.1,0,46.11-8.52,62.48-19.6v-10.65c-10.37-4.26-24.55-6.39-43.38-6.39Z"/>
  </g>
</svg>