<?xml version="1.0" encoding="UTF-8"?>
<svg id="Layer_2" data-name="Layer 2" xmlns="http://www.w3.org/2000/svg" viewBox="0 0 1776.41 304">
  <g id="Layer_1-2" data-name="Layer 1">
    <g>
      <g>
        <path d="M43.81,119.5v19.21h70.77v56.36H43.81v47.39H0V63.14h124.69v56.36H43.81Z"/>
        <path d="M253.09,91.32v51.24c-9.44-3.59-17.02-5.12-24.43-5.12-14.32,0-29.99,2.56-41.62,22.03v83h-40.44V88.76h40.44v25.62c8.93-20.24,22.75-28.18,39.26-28.18,11.8,0,20.05,2.56,26.79,5.12Z"/>
        <path d="M271.62,165.61c0-56.87,25.78-79.42,68.75-79.42s68.75,22.54,68.75,79.42-25.78,79.42-68.75,79.42-68.75-22.54-68.75-79.42ZM368.68,165.61c0-22.54-10.28-28.18-28.31-28.18s-28.31,5.64-28.31,28.18,10.28,28.18,28.31,28.18,28.31-5.64,28.31-28.18Z"/>
        <path d="M568.85,152.54v89.92h-40.44v-64.81c0-26.39-6.23-37.66-24.43-37.66-11.96,0-24.6,7.94-32.52,19.47v83h-40.44V88.76h40.44v20.49c12.13-12.81,27.63-23.06,48.87-23.06,22.75,0,48.53,10.76,48.53,66.35Z"/>
        <path d="M649.9,139.99v31.77c0,14.6,3.71,22.03,15.5,22.03,9.1,0,14.15,0,25.78-2.56v49.95c-9.6,2.56-21.57,3.84-34.88,3.84-31.34,0-46.84-14.6-46.84-47.91v-57.13h-20.39v-51.24h20.39v-25.62l40.44-15.37v40.99h41.28v51.24h-41.28Z"/>
        <path d="M807.28,184.82h39.6c-5.06,40.73-26.79,60.2-68.41,60.2s-67.06-22.54-67.06-79.42,27.47-79.42,68.75-79.42,68.41,22.54,68.41,89.66h-95.88c3.37,16.4,14.66,20.49,25.78,20.49,14.66,0,20.56-1.54,28.81-11.53ZM754.54,145.12h50.89c-4.55-13.83-14.66-15.37-25.44-15.37s-20.89,1.54-25.44,15.37Z"/>
        <path d="M1008.3,152.54v89.92h-40.44v-64.81c0-26.39-6.23-37.66-24.43-37.66-11.96,0-24.6,7.94-32.52,19.47v83h-40.44V88.76h40.44v20.49c12.13-12.81,27.64-23.06,48.87-23.06,22.75,0,48.53,10.76,48.53,66.35Z"/>
        <path d="M1166.01,37.52v204.94h-40.44v-21.01c-10.62,16.4-26.12,23.57-41.79,23.57-26.12,0-55.27-17.42-55.27-79.42s29.15-79.42,55.27-79.42c15.67,0,31.17,7.17,41.79,23.57V37.52h40.44ZM1125.57,165.61c0-22.54-10.28-28.18-28.31-28.18s-28.31,5.64-28.31,28.18,10.28,28.18,28.31,28.18,28.31-5.64,28.31-28.18Z"/>
      </g>
      <g>
        <path d="M1678.32,165.61c0,22.54-10.28,28.18-28.31,28.18s-28.31-5.64-28.31-28.18,10.28-28.18,28.31-28.18,28.31,5.64,28.31,28.18Z"/>
        <path d="M1490.44,182c-18.7,0-26.79,2.57-26.79,12.3,0,8.45,4.72,9.74,15,9.74,13.64,0,28.47-5.13,38.58-11.79v-6.4c-6.4-2.56-15.16-3.85-26.79-3.85ZM1490.44,182c-18.7,0-26.79,2.57-26.79,12.3,0,8.45,4.72,9.74,15,9.74,13.64,0,28.47-5.13,38.58-11.79v-6.4c-6.4-2.56-15.16-3.85-26.79-3.85ZM1711.74,0h-428.67c-35.71,0-64.66,28.95-64.66,64.66v174.67c0,35.72,28.95,64.67,64.66,64.67h428.67c35.71,0,64.67-28.95,64.67-64.67V64.66c0-35.71-28.96-64.66-64.67-64.66ZM1402.99,242.46h-121.32V63.14h43.81v122.96h77.51v56.36ZM1557.67,242.46h-40.44v-18.7c-15.67,17.42-33.19,21.26-50.72,21.26-23.08,0-43.3-12.55-43.3-45.85,0-39.97,30.33-50.47,59.82-50.47,14.15,0,24.94,2.82,34.2,7.94,0-18.44-12.8-19.21-26.28-19.21s-27.81,1.79-46.34,7.94l-13.15-43.55c20.23-9.99,42.13-15.63,60.83-15.63,41.46,0,65.05,21.52,65.38,80.19v76.08ZM1663.49,245.02c-15.67,0-31.17-7.17-41.79-23.56v21h-40.44V37.52h40.44v72.24c10.62-16.39,26.12-23.57,41.79-23.57,26.12,0,55.27,17.42,55.27,79.42s-29.15,79.41-55.27,79.41ZM1463.65,194.3c0,8.45,4.72,9.74,15,9.74,13.64,0,28.47-5.13,38.58-11.79v-6.4c-6.4-2.56-15.16-3.85-26.79-3.85-18.7,0-26.79,2.57-26.79,12.3Z"/>
      </g>
    </g>
  </g>
</svg>